<?xml version="1.0" encoding="UTF-8" standalone="no"?>
<svg
   xmlns:dc="http://purl.org/dc/elements/1.1/"
   xmlns:cc="http://creativecommons.org/ns#"
   xmlns:rdf="http://www.w3.org/1999/02/22-rdf-syntax-ns#"
   xmlns:svg="http://www.w3.org/2000/svg"
   xmlns="http://www.w3.org/2000/svg"
   xmlns:sodipodi="http://sodipodi.sourceforge.net/DTD/sodipodi-0.dtd"
   xmlns:inkscape="http://www.inkscape.org/namespaces/inkscape"
   sodipodi:docname="Logo del ITESM.svg"
   inkscape:version="1.0 (4035a4fb49, 2020-05-01)"
   id="svg8"
   version="1.1"
   viewBox="0 0 588.55902 588.55902"
   height="588.55902mm"
   width="588.55902mm">
  <defs
     id="defs2" />
  <sodipodi:namedview
     inkscape:window-maximized="1"
     inkscape:window-y="-8"
     inkscape:window-x="1352"
     inkscape:window-height="1017"
     inkscape:window-width="1920"
     showgrid="false"
     inkscape:document-rotation="0"
     inkscape:current-layer="layer1"
     inkscape:document-units="mm"
     inkscape:cy="3718.6542"
     inkscape:cx="-857.02664"
     inkscape:zoom="0.088388348"
     inkscape:pageshadow="2"
     inkscape:pageopacity="0.0"
     borderopacity="1.0"
     bordercolor="#666666"
     pagecolor="#ffffff"
     id="base" />
  <metadata
     id="metadata5">
    <rdf:RDF>
      <cc:Work
         rdf:about="">
        <dc:format>image/svg+xml</dc:format>
        <dc:type
           rdf:resource="http://purl.org/dc/dcmitype/StillImage" />
        <dc:title></dc:title>
      </cc:Work>
    </rdf:RDF>
  </metadata>
  <g
     id="layer1"
     inkscape:groupmode="layer"
     inkscape:label="Capa 1">
    <path
       id="path847"
       d="m 257.33315,588.39416 v -42.88833 c -51.72437,-4.12131 -94.17439,-29.68943 -128.51097,-67.013 h 330.6479 c -33.02469,37.8476 -77.68622,62.99088 -128.51094,67.013 v 42.88833 C 431.33016,569.67208 518.28518,515.3982 562.13287,419.52133 634.19804,261.94696 552.63381,69.489564 387.1827,14.763778 361.27028,6.1928144 332.87872,0.35061744 305.52474,0.02493328 228.85859,-0.88778285 154.26467,23.240389 96.694497,75.302269 -25.690724,185.97699 -34.869877,391.17891 87.329255,506.51768 136.12186,552.5717 192.3401,576.27148 257.33315,588.39416 M 294.81551,14.762703 c 6.99713,6.124059 13.48017,12.241939 18.60586,20.103907 28.02219,42.986175 -19.58313,80.05371 -46.71771,107.22076 -27.66325,27.69651 -55.17267,55.55656 -82.99652,83.09085 -23.24179,23.00022 -47.35631,44.91883 -56.32934,77.74044 -6.1591,22.52714 -0.20748,43.43919 2.78312,65.67277 -8.95971,-6.86079 -15.46148,-17.26255 -21.33152,-26.80519 -46.61331,-75.77833 32.32175,-139.75427 81.79859,-186.69821 11.33572,-10.75697 22.19482,-22.04737 33.2387,-33.10444 14.62618,-14.6437 30.16933,-28.77812 43.94268,-44.228646 9.87536,-11.075914 18.19378,-24.575013 22.40252,-38.867549 2.27968,-7.74269 1.54603,-16.844932 4.60362,-24.124692 M 375.1348,34.86661 c 43.82622,33.657963 7.82308,84.64541 -20.07986,112.58193 -41.2373,41.28662 -81.83334,83.39634 -124.49492,123.18461 -29.94713,27.92836 -64.22599,64.96646 -64.2555,108.68035 -34.13162,-28.31565 -14.99015,-83.77964 6.55279,-112.58184 17.91516,-23.95175 41.54517,-43.78366 63.05725,-64.38473 19.11338,-18.30671 36.86933,-38.06885 56.22358,-56.11945 24.62995,-22.96935 51.08846,-46.299264 69.04118,-75.17384 7.30096,-11.74336 8.73739,-24.075095 13.95548,-36.18703 m 38.82102,72.37409 c 4.59826,14.39697 7.98636,29.00722 6.46428,44.22864 -4.09359,40.97298 -44.52099,70.88492 -72.29143,96.93428 -19.66081,18.4433 -38.2774,38.12104 -57.32914,57.19561 -31.69403,31.73196 -63.33184,63.92638 -71.66762,109.90134 -3.02131,16.6661 -0.1472,30.5164 2.05754,46.90914 -41.28546,-23.95986 -35.32718,-87.42926 -16.54981,-123.30397 13.88721,-26.5305 34.27487,-45.08905 55.37081,-65.69289 22.86826,-22.3341 45.21305,-45.17746 68.26598,-67.30792 21.33418,-20.47918 43.31757,-41.13393 62.09895,-64.01756 8.83113,-10.76087 14.51632,-24.79745 23.58044,-34.84667 m 66.93266,29.48577 c 5.16726,15.90474 9.09894,32.75181 6.07088,49.58955 -6.18732,34.41788 -40.14226,60.83174 -64.35054,83.23152 -20.01555,18.5197 -38.67913,38.42661 -58.18325,57.47572 -39.55736,38.63572 -77.642,76.88807 -77.642,135.38645 h -1.33873 c -12.07195,-19.58529 -24.54957,-37.51257 -24.07573,-61.65203 0.64262,-32.66212 23.74778,-58.64306 45.4943,-80.4156 35.25071,-35.29308 71.42119,-69.72169 107.09241,-104.56038 16.15621,-15.77894 32.14907,-31.89417 46.25181,-49.56952 7.31578,-9.17017 12.49239,-21.37447 20.68085,-29.48571 m -1.33858,107.22074 c 1.684,21.35976 3.94897,39.99339 -5.17399,60.31171 -9.40932,20.95766 -28.46375,36.35863 -44.35623,52.27016 -31.84534,31.8835 -63.65581,61.26065 -76.30338,105.88063 -21.67415,-17.98097 -14.78944,-54.03126 -5.33452,-76.39487 12.64494,-29.90923 40.10075,-50.60286 62.89667,-72.42634 23.33681,-22.34214 44.67897,-48.05371 68.27145,-69.64129 M 289.4608,672.83058 c 13.67041,4.01947 12.04796,13.01794 12.04796,25.4649 0,25.03613 4.31179,54.47758 -0.30511,79.05529 -1.49925,7.97459 -10.43218,6.8983 -11.7427,14.76301 h 45.51429 l -11.74269,-14.76301 -0.30508,-37.50714 v -77.73514 c -8.30639,0.67954 -30.63377,2.16984 -33.46642,10.72209 m 117.8017,-5.36105 c -17.23521,0 -20.41044,2.31328 -25.8802,18.76361 -1.03476,3.10944 -4.89282,10.60152 -1.42433,13.28737 3.43763,2.66041 7.11362,-3.1067 8.76544,-5.27122 6.50592,-8.52006 13.92874,-17.06552 18.53909,-26.77976 m -554.20313,4.02077 -1.33882,32.16629 h 6.69333 c 3.10569,-21.05819 16.46008,-22.78444 34.80503,-22.78444 v 64.33251 l -0.58102,30.8206 -16.8216,16.08852 h 57.562269 l -16.821538,-14.76839 -0.580975,-30.80053 v -65.67271 c 18.992835,0 30.458421,1.97954 34.805032,22.78444 h 6.693278 L -43.864051,671.4903 H -146.94065 m 688.0754,1.0159 c -14.54853,5.22838 -6.17658,27.6456 7.96631,21.75108 13.29016,-5.53924 5.617,-26.63362 -7.96631,-21.75108 M 11.020557,770.66958 c -5.8967771,2.22086 -11.13359261,6.28452 -17.4025196,7.53229 -20.1962934,4.0181 -26.1479414,-15.62878 -30.7890684,-30.31671 8.944898,-1.66196 17.806793,-0.66342 26.77311,-1.72358 6.073477,-0.71705 17.3864457,0.3313 21.94992,-4.42691 10.441514,-10.88689 -9.691853,-29.71894 -19.2726149,-32.00406 -38.1168631,-9.09097 -63.0064811,43.30653 -40.7861451,71.64095 10.893975,13.88916 31.228151,16.76267 46.140768,8.22251 7.2983421,-4.18024 14.861749,-9.8496 13.38655,-18.92449 m 80.319307,0 c -9.034579,3.74867 -16.378445,9.97555 -26.773094,6.98412 -20.634035,-5.93873 -28.856052,-37.80739 -14.203131,-53.60641 13.8631,-14.94658 25.900297,10.37498 36.655045,2.8668 7.133699,-4.9817 2.827242,-13.70282 -3.730822,-16.35787 -40.924034,-16.56154 -82.71952081,46.3355 -46.779314,75.4875 12.796204,10.37764 30.442364,11.0143 44.12208,2.09484 6.299711,-4.10787 12.441463,-9.58959 10.709236,-17.46898 m 8.03194,-54.95066 v 4.02076 l 9.130996,5.66666 1.57827,14.43729 -0.99326,40.06173 -11.054661,12.20842 h 42.837001 c -1.03487,-5.98828 -6.46576,-6.82863 -8.56345,-12.13605 -3.96367,-10.03324 -0.80854,-26.71276 -0.8072,-37.45366 0,-4.03817 -0.81522,-9.34562 1.37619,-12.9616 7.20468,-11.89344 24.35688,-7.43176 27.36081,4.92005 2.72013,11.18588 3.28902,33.10981 0.13245,44.20318 -1.68675,5.93198 -7.7414,7.11007 -8.78969,13.42808 h 41.49836 c -1.24087,-7.16106 -9.3371,-7.33528 -10.51116,-14.74957 -3.34522,-21.13725 9.98912,-67.88958 -24.29386,-68.3211 -3.73213,-0.0505 -7.2742,0.32164 -10.70929,1.87365 -5.69857,2.57467 -10.89654,6.67318 -16.06383,10.16321 v -12.06239 l -32.127696,6.70134 M 233.23734,709.6449 c -52.80464,9.97286 -37.70723,94.02725 16.06386,84.32378 54.82328,-9.89247 40.01645,-94.91722 -16.06386,-84.32378 m 141.89746,0 c -52.95049,10.00097 -38.23203,94.12242 16.06387,84.32378 54.60365,-9.8536 39.7219,-94.86094 -16.06387,-84.32378 m 80.31931,54.32341 c -4.42696,3.2729 -13.08806,6.96533 -15.97291,11.57579 -4.91823,7.8593 7.16188,16.44634 13.2956,17.90994 -4.90217,6.02851 -13.80696,9.85625 -16.59536,17.42471 -5.23816,14.22014 10.06274,24.37533 21.94993,26.42056 23.6233,4.06499 58.87006,-8.36056 58.65452,-37.14398 -0.16337,-22.0232 -22.69418,-21.36776 -38.57462,-21.44549 -4.56354,-0.0202 -18.61803,-0.16112 -17.32221,-7.90088 1.09234,-6.52576 17.77995,-4.1186 22.67681,-5.55805 20.65813,-6.07541 26.28048,-24.30026 18.74119,-42.83068 8.54329,0.97969 17.0156,-1.90988 16.06386,-12.06238 -20.71709,4.94026 -42.0646,-6.97741 -61.57817,1.57349 -23.1387,10.13906 -24.14806,41.16341 -1.33864,52.03697 m 69.61005,-49.58968 v 6.70134 c 15.1603,3.09729 14.61949,45.28472 9.71599,57.60573 -2.54219,6.38633 -9.83913,6.41314 -11.05464,13.42808 9.66379,0 42.08464,4.98305 45.51422,-5.36109 l -11.62215,-6.78032 -1.76432,-22.70541 v -48.24938 l -30.7891,5.36105 m 89.68991,-4.73373 c -21.45602,4.05027 -40.5492,23.73192 -40.08741,46.28187 0.51814,25.25448 26.24704,46.22151 50.79664,36.27945 4.73746,-1.91789 21.82947,-11.35473 18.39849,-18.2852 -2.2784,-4.60245 -14.71851,3.98598 -18.39849,4.4993 -10.2447,1.4287 -20.33152,-6.06199 -25.42777,-14.45201 -7.72809,-12.7245 -6.31576,-44.14683 13.37988,-45.18957 8.28625,-0.43821 17.93264,12.3371 25.12921,8.68353 6.75086,-3.42701 3.94638,-12.44969 -1.11245,-15.75209 -6.02392,-3.93228 -15.88041,-3.34927 -22.6781,-2.06528 m 69.61005,0 c -52.8515,9.9822 -37.9629,94.07281 16.06389,84.32378 54.72952,-9.87504 39.89056,-94.89315 -16.06389,-84.32378 m -720.196513,28.85839 c 1.7764,-8.59502 5.611646,-23.60055 17.382441,-22.11155 6.962348,0.88056 15.8376332,13.77651 9.9020338,19.96319 -4.8432518,5.0474 -20.7585288,2.14836 -27.2844748,2.14836 M 237.25868,716.306 c 8.56463,-2.25842 15.73588,4.25527 19.13069,11.48063 6.21272,13.22431 10.83109,53.87711 -8.44699,58.85484 -8.92482,2.30393 -16.1294,-4.37865 -19.58714,-11.95108 -6.19134,-13.55677 -10.96623,-53.14939 8.90344,-58.38439 m 141.8934,0 c 8.42015,-2.20075 15.47754,4.38396 18.84693,11.47525 6.0788,12.79416 10.82037,53.81952 -8.14437,58.54394 -9.82308,2.44726 -16.59399,-4.83834 -20.34356,-12.97507 -6.34397,-13.77257 -10.24744,-51.84932 9.641,-57.04412 m 89.74614,0.22638 c 19.4868,-7.34592 24.10649,36.54624 7.95426,42.39916 -18.68492,6.77229 -23.92044,-36.38008 -7.95426,-42.39916 M 688.38547,716.306 c 25.22693,-6.64106 24.24437,38.8903 22.50545,53.02333 -0.80587,6.54448 -3.6197,14.56462 -10.51645,16.73447 -29.38213,9.24781 -36.32441,-63.35273 -11.989,-69.7578 m -223.55546,80.35661 c 8.08817,-1.8831 23.70492,-2.32131 30.48253,3.09468 11.72797,9.36973 0.70145,24.48121 -10.4081,27.33187 -8.85782,2.27445 -19.78127,1.028 -26.47188,-5.77649 -8.06803,-8.2037 -5.37063,-21.90924 6.39745,-24.65006 m -626.49591,36.99923 v 5.361 c 18.72631,4.09187 9.96888,21.30211 13.38645,34.84679 -18.26458,0.95833 -34.48992,1.49437 -47.94365,16.13672 -19.38339,21.09707 -13.35358,61.92142 17.15459,68.93095 12.4174,2.85208 19.99828,-4.5837 30.78906,-8.67282 l -1.33858,9.3818 c 5.54197,-0.45286 31.95772,-3.1563 33.79836,-8.47714 1.56756,-4.5287 -7.94889,-5.46289 -10.0479,-8.03083 -2.86749,-3.5088 -2.32535,-8.7492 -2.3321,-12.97772 -0.0575,-34.40047 0,-68.7996 0,-103.20007 l -33.46623,6.70132 m 178.041079,4.02079 c 1.713478,10.2771 16.256633,6.68116 17.034389,20.10388 0.804526,13.85027 -2.107053,29.07561 -3.420273,42.88836 -1.211474,12.74722 -0.227564,26.41785 -3.872718,38.8662 -2.8085,9.59224 -14.316918,8.97977 -15.09602,18.76498 h 44.175624 v -6.70133 c -5.444313,-1.06147 -11.549918,-1.74903 -14.80821,-6.84735 -5.275637,-8.25735 -2.716128,-22.86483 -1.637168,-32.02016 1.955775,-16.60318 1.720173,-34.20077 1.720173,-50.92993 h 1.338652 c 8.497784,24.99454 19.921866,49.19564 29.718138,73.71431 1.574267,3.94171 6.358616,22.87694 12.65565,19.86805 6.401448,-3.05846 10.061331,-19.04645 12.711872,-25.22905 l 20.255182,-46.90913 c 3.28511,-7.62472 5.74011,-16.85775 11.67171,-22.78442 -5.26355,17.86835 0,44.08788 0,62.99224 0,13.73098 0.94649,24.8511 -14.72513,28.14544 v 6.70133 h 52.20747 v -6.70133 c -6.35853,-1.2571 -12.26603,-2.69524 -14.86705,-9.38848 -3.19674,-8.21981 -1.00399,-19.45789 -1.21681,-28.13879 -0.46459,-19.00219 -5.71338,-42.98482 -0.8929,-61.63183 1.78581,-6.90639 8.18722,-7.91427 14.29951,-8.06169 v -6.7013 l -34.28292,1.37778 -12.57008,24.08713 -26.773061,57.63124 -26.205513,-58.9715 -11.798905,-22.74687 -35.621612,-1.37778 m 340.018441,45.56883 13.3865,1.34026 c 0,21.00054 -10.79352,80.08326 24.09587,74.76915 6.62899,-1.00922 12.61941,-5.20427 18.74111,-7.75615 l -1.33865,-6.70125 c -30.64313,6.99213 -21.41844,-40.65415 -21.41844,-60.31175 2.22214,0 28.32594,-1.65519 18.10126,-7.23339 -5.01995,-2.73949 -12.94876,1.75174 -16.72518,-3.91492 -3.64914,-5.47494 -1.37608,-17.32683 -1.37608,-23.69843 -6.57946,1.56138 -16.52571,7.01358 -19.27271,13.63578 -1.32791,3.20325 -0.21802,7.0645 -2.18192,10.06402 -2.80178,4.27943 -8.80299,5.05817 -12.01176,9.80668 m -443.09489,29.48575 c 11.584721,0 23.310001,-0.92075 34.805031,-2.29723 3.943681,-0.47313 9.484379,0.3161 12.579345,-2.71803 4.036046,-3.95914 1.630479,-12.08515 -0.424341,-16.42894 -5.788343,-12.2446 -18.945986,-19.22067 -32.234813,-16.9864 -39.426052,6.62623 -51.536912,74.63237 -8.031931,84.63069 11.790876,2.71003 24.188154,-0.52133 33.237465,-8.43023 2.318558,-2.02646 9.057347,-7.69709 6.687924,-11.41901 -1.920972,-3.0156 -17.149513,4.73381 -21.18422,4.83968 -17.112022,0.44374 -25.309953,-16.30162 -25.434445,-31.19053 M 207.80288,874.49154 c -55.77369,10.06936 -40.91732,95.29118 16.06383,84.52754 51.75373,-9.77454 37.00575,-94.10641 -16.06383,-84.52754 m 56.22353,6.07942 v 5.36103 c 15.65826,4.12933 13.98486,44.0356 10.12828,57.60706 -1.18473,4.17225 -13.29425,9.40194 -11.23129,12.69497 1.98385,3.16704 8.71865,2.07071 11.81225,2.07203 8.62226,0.004 28.96305,4.254 30.78909,-6.70133 -11.77618,-2.4071 -8.87667,-12.05965 -9.49106,-21.44545 -0.90624,-13.83686 -7.13772,-42.16728 14.84567,-42.49298 19.46003,-0.28825 17.64214,43.41638 13.95812,55.87681 -1.16594,3.94702 -9.37857,8.29218 -8.70933,11.8345 0.61311,3.23938 5.78305,2.87755 8.13905,2.92175 6.93292,0.1312 25.78922,3.25147 31.24024,-1.34427 1.43496,-1.21158 1.19681,-2.87887 10e-4,-4.14409 -8.29569,-8.78138 -9.82437,-11.03304 -9.82437,-23.99065 0,-19.33329 4.09898,-61.34908 -28.11173,-54.42799 -8.46439,1.81876 -14.96221,8.25737 -22.75714,11.53964 v -12.06236 l -30.7891,6.70133 m 172.68651,32.16625 c 11.49362,0 23.41569,-0.60983 34.80505,-2.11227 3.82987,-0.50503 9.62223,0.24262 12.57929,-2.7167 15.82293,-15.84323 -18.1173,-35.56649 -31.32047,-33.63519 -39.13557,5.72429 -52.73099,72.35933 -10.70925,84.3158 12.22193,3.47798 24.98998,-0.0151 34.79963,-7.69309 2.68674,-2.10288 8.77896,-6.7348 7.42019,-10.8682 -1.29181,-3.92558 -19.01021,3.95781 -23.47865,3.66294 -15.74391,-1.03736 -23.79591,-16.87384 -24.09579,-30.95329 m 56.22347,-30.82601 v 2.68052 c 15.00638,8.39273 14.46291,42.78246 10.2836,58.95138 -1.03344,3.99532 -12.09613,9.41935 -10.04793,12.69092 1.98256,3.16704 8.71866,2.07071 11.81228,2.07203 h 34.80505 v -6.70133 c -4.50592,-0.20919 -9.51916,-0.54413 -12.57938,-4.39466 -7.08147,-8.90872 -4.20874,-44.67493 4.60632,-51.44994 8.4657,-6.50426 19.60462,8.00538 25.35815,-5.86501 3.6907,-8.89793 -4.22077,-17.45286 -13.36912,-15.4438 -8.2475,1.81204 -13.88191,9.76649 -17.40253,16.8417 h -1.33867 v -17.42338 l -32.12777,8.04157 m 73.62613,-1.34024 8.94485,13.42807 0.42045,44.20312 -10.46827,18.03187 11.81222,2.07203 h 34.8051 v -6.70133 c -20.05038,-0.93282 -21.57784,-45.08366 -7.89138,-55.68915 8.28087,-6.41714 18.44799,7.17847 25.05427,-4.76327 5.07345,-9.17009 -3.42427,-18.84538 -13.14561,-16.70099 -8.37592,1.84823 -13.50032,10.81593 -18.7425,16.8417 v -17.42338 l -30.78903,6.70133 m 87.0125,32.16625 c 12.00109,0 24.23775,-0.86717 36.14374,-2.29723 4.15382,-0.49997 9.45893,0.193 12.3732,-3.49001 13.24329,-16.74257 -19.14681,-34.62294 -32.45303,-32.67692 -39.00974,5.70547 -52.59041,72.26284 -10.70921,84.3158 12.08797,3.47798 25.23358,0.23859 34.79963,-7.61134 2.6238,-2.15381 8.80032,-6.81387 7.4202,-10.93521 -1.21685,-3.63072 -19.14545,3.93371 -23.47869,3.6482 -15.59668,-1.02798 -23.49078,-17.06285 -24.09584,-30.95329 m 52.20759,-36.18704 c 1.18873,6.87956 8.00518,7.81505 11.57531,13.46153 6.02667,9.52927 9.54065,21.57151 13.43207,32.10729 4.32523,11.70855 15.62482,30.48426 10.66377,42.88837 -3.71073,9.27457 -21.67282,19.80236 -21.67282,28.19779 0,9.68805 14.03045,14.25315 18.59927,5.22961 13.59271,-26.84404 21.98738,-57.89386 33.95902,-85.69755 5.25419,-12.20039 8.80027,-27.07998 23.13328,-30.82601 v -5.36103 h -33.46637 c 0.99596,5.76445 6.98508,6.83666 8.127,12.13605 2.45908,11.41096 -9.92348,31.8848 -13.48162,42.8146 h -1.33863 c -3.69471,-11.36673 -22.07711,-44.17494 -6.69331,-49.58962 v -5.36103 h -42.83697 m -493.96377,4.72975 c 23.82275,-1.875 22.41582,39.81646 20.05975,54.24167 -1.21415,7.43579 -4.93291,15.95046 -13.36642,17.06423 -24.16408,3.18847 -25.44522,-41.15537 -21.18959,-55.93174 1.9464,-6.76297 6.69053,-14.75894 14.49626,-15.37416 m -378.83914,1.16474 c 24.45457,-5.29407 17.47361,30.22685 17.79619,43.69512 0.18076,7.5551 2.40289,17.31889 -7.1123,19.57591 -32.7981,7.77748 -39.16766,-57.10318 -10.68389,-63.27103 m 80.319366,20.91068 c 1.895536,-9.07351 7.468352,-25.35368 20.022262,-20.4443 4.989169,1.95141 12.919365,14.39706 7.262205,19.06654 -3.708069,3.06115 -12.084038,1.20758 -16.575222,1.49707 -3.853996,0.24821 -6.928883,0.70097 -10.709245,-0.11956 m 524.752834,1.34031 c 0.2246,-9.6472 6.76825,-28.39611 20.02091,-21.40533 4.74689,2.50361 11.71727,14.0741 5.94364,18.68726 -4.83521,3.8653 -19.66748,1.92198 -25.96455,2.71807 m 244.97392,-1.34031 -28.11173,1.34031 c 0.60905,-26.06272 28.03138,-29.12121 28.11173,-1.34031 z"
       style="fill:#ffffff;stroke:none;stroke-width:1.33963" />
  </g>
</svg>
